<?xml version="1.0" standalone="no"?>
<!DOCTYPE svg PUBLIC "-//W3C//DTD SVG 1.1//EN" "http://www.w3.org/Graphics/SVG/1.1/DTD/svg11.dtd" >
<svg xmlns="http://www.w3.org/2000/svg">
<metadata>
This is a custom SVG webfont generated by Font Squirrel.
Copyright   : Copyright 2003 2008 B Jackowski and J M Nowacki on behalf of TeX users groups This work is released under the GUST Font License   see httptugorgfontslicensesGUSTFONTLICENSEtxt for details
</metadata>
<defs>
<font id="webfontum2k8XM6" horiz-adv-x="1132" >
<font-face units-per-em="2048" ascent="1651" descent="-397" />
<missing-glyph horiz-adv-x="774" />
<glyph unicode=" "  horiz-adv-x="774" />
<glyph unicode="&#x09;" horiz-adv-x="774" />
<glyph unicode="&#xa0;" horiz-adv-x="774" />
<glyph unicode="!" horiz-adv-x="653" d="M235.5 108.5q8.5 45.5 45 77t82 31.5t72 -31.5t18 -77t-45 -77t-81.5 -31.5t-72 31.5t-18.5 77zM369 430l75 932q8 47 45 75.5t80 28.5t72 -28.5t21 -75.5l-236 -934q-10 -45 -37 -45q-16 0 -19 9t-1 38z" />
<glyph unicode="&#x22;" horiz-adv-x="849" d="M446 866l39 506q2 31 28 51.5t56.5 20.5t48 -20.5t11.5 -51.5l-129 -506h-54zM643 866l39 506q2 31 27.5 51.5t56.5 20.5t48 -20.5t11 -51.5l-129 -506h-53z" />
<glyph unicode="#" horiz-adv-x="1849" d="M201 313q6 41 75 41h373l142 316h-461q-20 0 -32.5 1t-23 11t-8.5 29q6 41 74 41h487l283 622q20 47 51 47q16 0 26.5 -12t6.5 -29l-14 -37l-269 -591h412l283 622q20 47 51 47q16 0 26.5 -12t6.5 -29l-15 -37l-268 -591h350q20 0 31.5 -1t22 -11.5t8.5 -28.5 q-6 -41 -76 -41h-373l-141 -316h461q20 0 32.5 -1t22.5 -11t8 -29q-8 -41 -76 -41h-487l-283 -622q-10 -27 -19 -37t-30 -10q-16 0 -26.5 12t-8.5 29q0 2 15 37l268 591h-412l-282 -622q-10 -27 -19.5 -37t-30.5 -10q-16 0 -26 12t-8 29q0 2 14 37l268 591h-350 q-20 0 -31.5 1t-21.5 11.5t-6 28.5zM733 354h412l141 316h-412z" />
<glyph unicode="$" d="M209 365q8 45 34.5 70.5t44 29.5t31.5 4q39 0 63 -25.5t17 -68.5q-8 -41 -38.5 -67.5t-71.5 -26.5q-16 0 -33 4q8 -111 83 -173.5t202 -70.5l102 612q-70 16 -101.5 26.5t-73.5 36t-77 66.5q-96 115 -67 269q25 150 151.5 264.5t298.5 126.5l17 94h63l-14 -92 q182 -10 266 -111.5t57 -249.5q-8 -45 -36.5 -70.5t-45 -28.5t-28.5 -3q-37 0 -61.5 24.5t-16.5 69.5q6 43 36.5 68.5t71.5 25.5q23 0 31 -4q-6 88 -78.5 147.5t-208.5 67.5l-92 -555q63 -16 96 -26.5t75 -38t73 -68.5q96 -123 72 -293q-29 -162 -158 -283.5t-299 -135.5 l-14 -95h-64l14 92q-188 10 -268 122t-53 266zM438 1112q-35 -207 236 -272l90 538q-129 -12 -219.5 -90t-106.5 -176zM606 43q133 16 222.5 103t107.5 192q18 125 -53 205q-55 68 -178 94z" />
<glyph unicode="%" horiz-adv-x="1849" d="M315 -74q0 12 27 43l1196 1366l-2 2q-139 -72 -297 -71q-172 0 -315 90q33 -113 8 -234q-29 -172 -130.5 -291.5t-219.5 -119.5q-125 0 -201 117.5t-45 295.5q29 174 142.5 293t240.5 119q82 0 141 -63q158 -162 387 -162q256 0 441 194q27 31 47 31q16 0 26.5 -12.5 t7.5 -28.5q-4 -16 -24 -37l-1348 -1544q-25 -29 -47 -29q-16 0 -26.5 12.5t-8.5 28.5zM449.5 951.5q9.5 -68.5 22.5 -107.5t42 -58.5t46.5 -24.5t33.5 -5q88 0 174 104.5t115 263.5q25 158 -27.5 262.5t-140.5 104.5q-23 0 -49.5 -10.5t-68.5 -42t-79 -113.5t-57 -203 q-21 -102 -11.5 -170.5zM1151 299q31 174 145.5 293t239.5 119q119 0 180.5 -120t32.5 -294q-29 -172 -130 -292t-220 -120q-125 0 -201 118t-47 296zM1266.5 126q9.5 -69 21.5 -107.5t41 -58t46.5 -25t33.5 -5.5q88 0 175 104.5t114 264.5q27 158 -25.5 262.5t-140.5 104.5 q-23 0 -49.5 -10.5t-68.5 -42t-79 -113.5t-57 -203q-21 -102 -11.5 -171z" />
<glyph unicode="&#x26;" horiz-adv-x="1728" d="M162 262q8 51 35.5 96t53.5 70l87 80l250 213q-45 238 -15 416q25 154 128.5 241.5t211.5 87.5q94 0 126 -83t16 -181q-27 -147 -312 -397l-16 -21q-6 -37 72 -214t190 -334q102 98 191 200q127 150 211 258l14 39q6 41 -30 63.5t-95 22.5l10 64q82 -6 248 -6l201 6 l-10 -64q-86 0 -149.5 -28.5t-95.5 -59.5t-85 -98q-242 -303 -383 -438q51 -59 79.5 -88t82 -59t108.5 -30q86 0 173 58.5t110 171.5h51q-25 -129 -126 -211t-228 -82q-188 0 -351 156q-215 -156 -415 -156q-162 0 -260 88t-78 219zM344 326q-20 -115 25 -211.5t159 -96.5 q170 0 355 129q-209 260 -283 531q-139 -117 -189.5 -180t-66.5 -172zM709 1182q-27 -164 6 -346q266 236 289 366q2 10 4 39t-1 73t-28 75.5t-70 31.5q-59 0 -119.5 -58t-80.5 -181z" />
<glyph unicode="'" horiz-adv-x="653" d="M446 866l39 506q2 31 28 51.5t56.5 20.5t48 -20.5t11.5 -51.5l-129 -506h-54z" />
<glyph unicode="(" horiz-adv-x="892" d="M322.5 50.5q-29.5 193.5 7.5 461.5q43 256 160.5 486.5t302.5 400.5q41 39 103 88t81 49q23 0 16 -20q0 -4 -10 -19q-55 -45 -95 -81t-115 -127t-129 -188t-110.5 -254t-84.5 -335q-106 -641 204 -985q6 -6 6 -19q-2 -20 -24 -20q-18 0 -75.5 59.5t-132.5 184.5 t-104.5 318.5z" />
<glyph unicode=")" horiz-adv-x="892" d="M68 -492q0 4 10 19q233 188 360 440q129 258 176 545q106 641 -204 983l-4 8q-4 8 -5 13q4 20 27 20q16 0 73.5 -59.5t132.5 -184.5t105.5 -318.5t-6.5 -461.5q-35 -201 -111.5 -380t-162.5 -291.5t-171 -196.5t-138.5 -120t-63.5 -36q-22 0 -18 20z" />
<glyph unicode="*" d="M322 903q6 35 53 55l325 138l-282 137q-39 20 -33 53q4 27 23.5 42t40.5 15q16 0 36 -16l246 -192l23 303l4 45q4 25 23.5 39t39.5 14q55 0 41 -76l-86 -325l309 192q25 16 43 16q23 0 37.5 -15t10.5 -42q-6 -35 -56 -55l-325 -137l282 -138q39 -20 35 -53 q-4 -27 -23.5 -42t-41.5 -15q-16 0 -37 16l-246 193l-23 -303l-2 -45q-4 -25 -24.5 -39.5t-40.5 -14.5q-29 0 -41 21.5t-2 34.5l2 10l86 336l-309 -193q-25 -16 -43 -16q-23 0 -36 15t-9 42z" />
<glyph unicode="+" horiz-adv-x="1728" d="M233 512q6 41 74 41h608l103 608q10 68 51 68t31 -68l-103 -608h607q20 0 31.5 -1t21.5 -11.5t8 -28.5q-8 -41 -76 -41h-606l-100 -608q-4 -23 -7.5 -32t-15.5 -22.5t-31 -13.5q-43 0 -28 68l100 608h-608q-20 0 -31.5 1t-22 11.5t-6.5 28.5z" />
<glyph unicode="," horiz-adv-x="653" d="M184 -373q0 10 25 27q172 145 205 348q4 23 2 37q-35 -39 -90 -39q-51 0 -74 31.5t-16 77.5q6 43 40.5 75.5t85.5 32.5q66 0 89.5 -61.5t7.5 -153.5q-25 -154 -124 -275.5t-132 -121.5q-23 -1 -19 22z" />
<glyph unicode="-" horiz-adv-x="774" d="M117 383l20 119h572l-21 -119h-571z" />
<glyph unicode="." horiz-adv-x="653" d="M235.5 108.5q8.5 45.5 45 77t82 31.5t72 -31.5t18 -77t-45 -77t-81.5 -31.5t-72 31.5t-18.5 77z" />
<glyph unicode="/" d="M70 -471l16 37l1063 1929q23 41 49 41q16 0 26.5 -12.5t8.5 -28.5l-16 -37l-1063 -1929q-23 -41 -52 -41q-16 0 -26 12.5t-6 28.5z" />
<glyph unicode="0" d="M225 655q53 311 172 492q72 106 178.5 161.5t217.5 55.5q106 0 193 -53.5t126 -159.5q66 -182 10 -496q-53 -317 -168 -483q-154 -217 -397 -217q-240 0 -321 209q-62 165 -11 491zM354 242q6 -131 69.5 -186.5t141.5 -55.5q27 0 55.5 7t75.5 29.5t91 79t75 140.5 q49 131 94 422q53 313 41 420q-4 68 -29.5 116t-61.5 68.5t-64.5 28.5t-57.5 8q-76 0 -160.5 -53.5t-134.5 -188.5q-41 -113 -90 -399q-51 -319 -45 -436z" />
<glyph unicode="1" d="M240 0l10 63h72q137 0 170.5 19.5t42.5 79.5l178 1063q-125 -55 -291 -56l10 64q256 0 408 131q35 0 40 -8t-1 -45l-193 -1149q-6 -35 -2 -56.5t45 -32t137 -10.5h72l-10 -63q-72 6 -342 6t-346 -6z" />
<glyph unicode="2" d="M135 0q6 37 10.5 47t22.5 25l522 469q244 221 281 426q23 141 -41 237t-201 96q-102 0 -191 -57t-139 -151q6 2 25 2q51 0 74.5 -32t15.5 -75q-8 -55 -47 -81.5t-76 -26.5q-8 0 -19.5 2t-34 11t-32.5 35.5t-4 65.5q25 145 157 258t308 113q195 0 307.5 -110.5 t83.5 -286.5q-14 -88 -69.5 -170t-103.5 -125t-146 -123l-93 -67q-76 -54 -98 -72l-319 -252h395q182 0 199 14q23 16 82 184h51l-117 -356h-803z" />
<glyph unicode="3" d="M166 276q10 61 49 90t84 29q47 0 75.5 -30.5t20.5 -83.5q-10 -53 -53 -87t-98 -26q39 -90 134 -123t173 -33q100 0 189 79t120 259q27 160 -27.5 250t-179.5 90h-102q-29 0 -38 3t-7 19.5t12 19.5t41 5q111 6 158 20.5t98 63.5q45 47 77 110.5t41 97.5t11 54 q20 121 -33 175.5t-141 54.5q-82 0 -171 -32t-138 -95q27 0 47 -3t43.5 -28t15.5 -72q-8 -45 -40.5 -74.5t-80.5 -29.5q-45 0 -70.5 28.5t-17.5 77.5q20 121 144.5 200t284 79t263 -81t83.5 -202q-18 -104 -106.5 -205.5t-252.5 -154.5q158 -31 238 -136.5t59 -234.5 q-27 -158 -177.5 -276.5t-346.5 -118.5q-180 0 -293 91t-88 230z" />
<glyph unicode="4" d="M145 338l11 63l819 957q27 29 47 28q23 0 27 -11t-2 -42l-156 -932h219l-10 -63h-219l-31 -178q-10 -59 12.5 -78t132.5 -19h47l-10 -63q-74 6 -284 6q-213 0 -291 -6l10 63h47q111 0 139.5 18.5t38.5 78.5l31 178h-578zM213 401h532l129 775z" />
<glyph unicode="5" d="M190 332q10 57 46 81.5t73 24.5q47 0 69.5 -29.5t16.5 -70.5q-6 -39 -39.5 -69.5t-81.5 -30.5q-20 0 -32 4q16 -98 94 -164t190 -66q143 0 250 125q76 92 109 287q31 193 -6 281q-45 111 -160 110q-172 0 -295 -135q-25 -27 -41 -27q-18 0 -20.5 13.5t4.5 40.5l100 608 q8 49 29 49l22 -10q129 -55 278.5 -55.5t293.5 55.5l28 10q20 0 17 -23q-2 -12 -37 -44.5t-90.5 -71.5t-142.5 -68t-175 -29q-96 0 -186 29l-68 -405q129 109 295 108q174 0 269.5 -133t64.5 -315q-33 -190 -193.5 -323.5t-351.5 -133.5q-170 0 -262.5 115t-67.5 262z" />
<glyph unicode="6" d="M208 371.5q-9 117.5 19 277.5q53 317 257 516t427 199q135 0 193.5 -63.5t44.5 -157.5q-8 -53 -42 -76t-69 -23q-37 0 -61.5 25t-15.5 70q14 92 124 92q-43 82 -178 82q-37 0 -79 -9.5t-106.5 -47t-118.5 -98t-105.5 -177.5t-75.5 -272l-8 -50q43 80 123.5 146.5 t189.5 66.5q80 0 141.5 -25.5t85 -47t56.5 -60.5q104 -127 71 -321q-33 -201 -186.5 -332t-333.5 -131q-68 0 -125 20.5t-110.5 69.5t-81 129t-36.5 197.5zM377 174q4 -20 14 -40.5t30.5 -51.5t59.5 -50.5t90 -19.5q129 0 224 111q33 39 53 91t28.5 91t20.5 113 q35 203 4 280q-51 129 -184 129t-221 -113.5t-111 -250.5q-31 -180 -8 -289z" />
<glyph unicode="7" d="M307 963l139 421h52q0 -18 4 -27t27.5 -18.5t72.5 -13.5q72 -6 164 -6h524q-6 -47 -28 -72l-357 -387q-199 -215 -276 -692l-17 -100q-23 -113 -114 -113q-96 0 -74 113q70 418 428 811l256 282h-453q-184 0 -209 -10q-27 -12 -88 -188h-51z" />
<glyph unicode="8" d="M170 309q12 76 52 139.5t105.5 110.5t107.5 71.5t112 57.5l-34 23q-9 6 -31.5 22.5t-32 25.5t-29 25.5t-26.5 29.5t-20.5 31.5t-17.5 37.5l-9 41q-5 23 -4 47t5 51q25 143 155 242.5t292 99.5q154 0 255 -84t78 -219q-31 -190 -313 -320l111 -75q176 -121 143 -324 q-27 -162 -177.5 -274.5t-336.5 -112.5q-176 0 -294 97t-91 257zM272 309q-20 -127 68 -212t229 -85q137 0 252 72t133 186q10 55 -13 104.5t-45 69t-58 43.5l-248 168q-137 -61 -218.5 -153.5t-99.5 -192.5zM453 1102q-10 -68 20.5 -108t99.5 -87l201 -135q45 23 90 50.5 t103.5 95t70.5 141.5q20 111 -56.5 182.5t-199.5 71.5q-119 0 -217 -58.5t-112 -152.5z" />
<glyph unicode="9" d="M201 176q10 53 44 75.5t66 22.5q37 0 62.5 -24.5t17.5 -69.5q-16 -94 -123 -94q49 -74 203 -74q43 0 87 12.5t101.5 50.5t106.5 99.5t93 172t69 253.5l10 64q-125 -215 -313 -215q-111 0 -174.5 36.5t-116.5 104.5q-96 123 -64 313q18 106 63.5 182t127.5 146 q154 133 338 133q66 0 122 -20.5t108 -68.5t80 -127t36 -196.5t-21 -277.5q-53 -317 -247.5 -518t-413.5 -201q-141 0 -209.5 59.5t-52.5 161.5zM451 614q51 -121 182 -120q135 0 223 114.5t111 251.5q29 207 8 297q0 6 -8.5 27.5t-26.5 52.5t-57 53.5t-90 22.5 q-133 0 -228 -109q-51 -57 -71.5 -120.5t-40.5 -182.5q-33 -207 -2 -287z" />
<glyph unicode=":" horiz-adv-x="653" d="M235.5 108.5q8.5 45.5 45 77t82 31.5t72 -31.5t18 -77t-45 -77t-81.5 -31.5t-72 31.5t-18.5 77zM346 774q8 45 45 77t82 32t71.5 -32t18.5 -77t-45 -76.5t-82 -31.5t-71.5 31.5t-18.5 76.5z" />
<glyph unicode=";" horiz-adv-x="653" d="M184 -373q0 8 21 27q158 152 194 369q-18 -14 -57 -21q0 -2 -16 -2q-51 0 -74 31.5t-16 77.5q6 43 40.5 75.5t85.5 32.5q109 0 80 -211q-18 -109 -74.5 -208t-103.5 -146t-61 -47q-23 -1 -19 22zM346 774q8 45 45 77t82 32t71.5 -32t18.5 -77t-45 -76.5t-82 -31.5 t-71.5 31.5t-18.5 76.5z" />
<glyph unicode="&#x3c;" horiz-adv-x="1728" d="M293 512q2 10 6 17.5t11 11.5l15 8q7 4 15 8l1321 549q43 -4 37 -43q-6 -25 -47 -43l-1217 -508l1047 -508q37 -18 32 -43q-8 -41 -49 -41l-32 10l-1108 537q-37 18 -31 45z" />
<glyph unicode="=" horiz-adv-x="1728" d="M201 313q6 41 75 41h1293q20 0 32.5 -1t22.5 -11t8 -29q-8 -41 -76 -41h-1296q-20 0 -31.5 1t-21.5 11.5t-6 28.5zM266 711q6 41 74 41h1296q20 0 31.5 -1t22 -11.5t8.5 -28.5q-6 -41 -76 -41h-1292q-20 0 -32.5 1t-23 11.5t-8.5 28.5z" />
<glyph unicode="&#x3e;" horiz-adv-x="1728" d="M201 -41q4 27 45 45l1218 508l-1048 508q-35 18 -31 45q2 14 16.5 26.5t30.5 12.5l33 -10l1108 -537q35 -18 33 -45q-4 -25 -50 -45l-1320 -549q-20 2 -29.5 15.5t-5.5 25.5z" />
<glyph unicode="?" horiz-adv-x="1073" d="M342 1171q20 111 134 192t282 81q115 0 194.5 -26.5t115.5 -69.5t47 -88.5t3 -92.5q-23 -129 -137 -202q-319 -190 -363 -455l-12 -72q-4 -23 -7 -32t-10 -16t-20 -7q-16 0 -19 11.5t3 37.5l16 90q43 262 283 469q78 68 98 185q8 43 7 71.5t-15 68.5t-64.5 61.5 t-134.5 21.5q-205 0 -309 -139q16 0 29.5 -2.5t34 -9.5t30 -27.5t2.5 -53.5q-6 -41 -36.5 -67.5t-73.5 -26.5q-39 0 -62.5 24.5t-15.5 73.5zM416 108.5q8 45.5 45 77t82 31.5t71.5 -31.5t18.5 -77t-45 -77t-82 -31.5t-71.5 31.5t-18.5 77z" />
<glyph unicode="@" horiz-adv-x="1728" d="M266 711q51 303 297 518t543 215q135 0 255 -53.5t204 -147.5t120.5 -237.5t10.5 -309.5q-72 -434 -293 -434q-74 0 -129 39t-55 111q-139 -150 -313.5 -150t-280 130t-72.5 318.5t180.5 318.5t321.5 130q86 0 159.5 -44t116.5 -130h76q35 0 41 -7t0 -42l-82 -492 q-20 -137 53 -137q92 0 143.5 102.5t79.5 278.5q53 326 -116.5 518.5t-429.5 192.5q-272 0 -501.5 -201t-277.5 -487q-47 -279 111 -483.5t449 -204.5q287 0 614 131q12 6 47 6h18q43 0 43 -21q-2 -16 -131 -61q-303 -100 -598 -101q-315 0 -484 219.5t-120 514.5z M694.5 711q-28.5 -170 38 -287t182.5 -117q158 0 289 156q31 39 37 80l57 336q4 29 2 43t-18 47q-78 145 -231 145q-117 0 -222.5 -116.5t-134 -286.5z" />
<glyph unicode="A" horiz-adv-x="1667" d="M98 0l11 63q84 0 143 30t76.5 52.5t38.5 59.5l655 1222q8 16 13 22.5t14.5 11.5t25.5 5q25 0 32 -8t13 -37l260 -1282q10 -45 38 -60.5t122 -15.5h37l-10 -63l-267 6q-221 0 -296 -6l10 63q168 0 178 60q2 8 -4 37l-64 313h-544l-144 -266q-14 -23 -16 -41q-1 -6 -1 -13 q0 -33 27 -59q33 -31 107 -31l-10 -63l-236 6q-80 0 -209 -6zM612 537h500l-137 675z" />
<glyph unicode="B" horiz-adv-x="1579" d="M119 0l10 63h49q111 0 139.5 18.5t38.5 78.5l181 1079q3 19 3 33q0 32 -16 45q-23 18 -133 18h-49l10 64h774q203 0 323 -104q101 -87 101 -199q0 -21 -4 -43q-20 -115 -137 -204t-274 -118q180 -20 280 -123q82 -84 82 -186q0 -23 -4 -47q-25 -150 -181.5 -262.5 t-361.5 -112.5h-831zM524 145q-4 -23 -4 -39q0 -21 7 -28q13 -14 83 -15h283q156 0 264.5 95.5t130.5 218.5q5 29 5 57q0 90 -51 168q-67 102 -214 103h-412zM625 750h319q164 0 273.5 92t130.5 211q4 22 3 43q0 78 -46 149q-59 90 -203 90h-279q-70 0 -87 -14t-27 -68z" />
<glyph unicode="C" horiz-adv-x="1609" d="M264 700q51 309 309 526.5t564 217.5q223 0 372 -182l133 157q20 25 37 25q14 0 17 -9q1 -5 1 -13t-1 -19q-2 -4 -2 -8l-82 -486q-4 -33 -10.5 -41t-30.5 -8q-18 0 -22.5 6t-4.5 29v16q0 216 -109 340q-114 129 -286 129q-53 0 -115.5 -12t-152.5 -55t-166 -113 t-143.5 -200t-96.5 -302q-14 -108 -14 -194q0 -29 2 -55q6 -106 47 -181t88 -124.5t110.5 -77t116 -38t103.5 -10.5q184 0 349 125t212 336q0 2 2 4q8 29 29 29q18 0 21 -10t-1 -25q-33 -197 -219 -359.5t-432 -162.5q-307 0 -492 217q-144 170 -144 398q0 62 11 130z" />
<glyph unicode="D" horiz-adv-x="1697" d="M117 0l10 63h49q111 0 139.5 18.5t38.5 78.5l181 1079q3 19 3 33q0 32 -16 45q-23 18 -133 18h-49l10 64h774q272 0 430 -209q120 -159 121 -367q0 -65 -12 -135q-47 -287 -273.5 -487.5t-498.5 -200.5h-774zM528 145q-4 -23 -4 -39q0 -21 7 -28q13 -14 83 -15h232 q236 0 401 160q158 154 211 465q19 109 19 199q0 158 -58 256q-113 193 -360 192h-232q-70 0 -87 -14t-27 -68z" />
<glyph unicode="E" horiz-adv-x="1519" d="M113 0l10 63h49q111 0 139.5 18.5t38.5 78.5l178 1073q3 19 4 33q0 32 -16 45q-23 18 -133 18h-49l10 64h1200l-18 -461h-51q2 47 2 86q0 59 -6 100q-9 70 -47 121t-110.5 70.5t-193.5 19.5h-293q-70 0 -87 -14.5t-25 -67.5l-82 -491h201q145 0 196 49t74 190h51 l-90 -542h-51q9 56 9 96q0 64 -22 94q-35 49 -180 49h-200l-91 -547q-4 -23 -4 -39q0 -21 8 -28q13 -14 82 -15h310q109 0 186.5 19.5t129.5 52.5t94 96.5t69 127t61 169.5h52l-175 -528h-1230z" />
<glyph unicode="F" horiz-adv-x="1460" d="M113 0l10 63h49q111 0 139.5 18.5t38.5 78.5l178 1073q3 19 4 33q0 32 -16 45q-23 18 -133 18h-49l10 64h1167l-18 -461h-51q2 37 2 70q0 172 -53 243q-63 84 -291 84h-273q-70 0 -87 -14.5t-25 -67.5l-88 -518h192q143 0 193.5 50t72.5 190h52l-90 -543h-52q9 58 10 100 q0 61 -20 90q-33 49 -176 50h-193l-84 -504q-8 -35 -2.5 -57.5t46 -32t135.5 -9.5h67l-10 -63q-72 6 -342 6q-239 0 -313 -6z" />
<glyph unicode="G" horiz-adv-x="1742" d="M264 700q51 307 308 525.5t565 218.5q76 0 139 -17.5t110.5 -52.5t69 -55.5t51.5 -56.5l133 157q20 25 37 25q14 0 16.5 -9.5t0.5 -31.5q-2 -4 -2 -8l-82 -486q-4 -33 -10.5 -41t-30.5 -8q-18 0 -22.5 6t-4.5 29v16q0 218 -108 341q-113 128 -285 128q-59 0 -126 -14 t-156 -59t-162.5 -116t-138 -199t-91.5 -292q-14 -108 -14 -194q0 -29 2 -55q6 -106 48 -182t90 -125.5t112.5 -77t118 -38t106.5 -10.5q23 0 47.5 1t84.5 14.5t106.5 37t89.5 75t55 120.5l20 131q6 35 2 56.5t-45 32t-137 10.5h-71l12 63q72 -6 338 -6l262 6l-12 -63 q-100 0 -127 -12.5t-37 -77.5l-60 -357q-6 -47 -26 -47q-16 0 -55 46t-54 81q-66 -86 -187.5 -130t-252.5 -44q-311 0 -495 218q-143 170 -143 397q0 62 11 130z" />
<glyph unicode="H" horiz-adv-x="1667" d="M113 0l10 63h49q111 0 139.5 18.5t38.5 78.5l180 1079q3 19 4 33q0 32 -16 45q-23 18 -133 18h-49l10 64q70 -6 301 -6q229 0 303 6l-10 -64h-49q-111 0 -139.5 -18.5t-38.5 -77.5l-80 -479h653l80 479q3 19 3 33q0 32 -15 45q-23 18 -133 18h-50l11 64q70 -6 301 -6 q229 0 303 6l-10 -64h-50q-111 0 -139 -18.5t-39 -77.5l-180 -1079q-3 -19 -3 -33q0 -32 15 -45q23 -18 133 -19h50l-11 -63q-70 6 -301 6q-229 0 -303 -6l10 63h50q111 0 139.5 18.5t38.5 78.5l90 536h-653l-91 -536q-3 -19 -3 -33q0 -32 16 -45q23 -18 133 -19h49l-10 -63 q-70 6 -301 6q-229 0 -303 -6z" />
<glyph unicode="I" horiz-adv-x="831" d="M102 0l11 63h53q115 0 144.5 18.5t39.5 78.5l180 1079q3 18 4 32q0 33 -17 46q-24 18 -138 18h-53l10 64q70 -6 311 -6q240 0 314 6l-11 -64h-53q-115 0 -144.5 -18.5t-39.5 -77.5l-181 -1079q-3 -18 -3 -32q0 -33 17 -46q24 -18 138 -19h53l-10 -63q-70 6 -311 6 q-240 0 -314 -6z" />
<glyph unicode="J" horiz-adv-x="1161" d="M166 229q10 61 50 90t83 29q47 0 76 -31q22 -24 22 -61q0 -11 -2 -23q-18 -115 -149 -114q20 -51 80.5 -85t136.5 -34q90 0 171 82t103 223l156 932q8 35 2 57.5t-47 31.5t-139 9h-74l10 64q76 -6 342 -6l266 6l-10 -64q-104 0 -133 -12t-39 -74l-151 -909 q-14 -76 -17 -84q-41 -135 -169 -218t-273.5 -83t-229.5 81q-69 66 -68 154q0 19 3 39z" />
<glyph unicode="K" horiz-adv-x="1726" d="M113 0l10 63h49q111 0 139.5 18.5t38.5 78.5l180 1079q3 19 4 33q0 32 -16 45q-23 18 -133 18h-49l10 64q70 -6 301 -6q229 0 303 6l-10 -64h-49q-111 0 -139.5 -18.5t-38.5 -77.5l-109 -655l785 614q49 41 53 72q2 12 0 25.5t-21.5 26.5t-54.5 13l10 64q68 -6 258 -6 q121 0 176 6l-10 -64q-170 -2 -321 -125l-447 -352l377 -690q20 -39 40.5 -60.5t50.5 -30.5t51.5 -11.5t66.5 -2.5l-10 -63l-236 6q-221 0 -295 -6l10 63q128 0 128 66q0 21 -21 64l-305 555l-297 -234l-60 -354q-3 -19 -3 -33q0 -32 16 -45q23 -18 133 -19h49l-10 -63 q-70 6 -301 6q-229 0 -303 -6z" />
<glyph unicode="L" horiz-adv-x="1398" d="M113 0l10 63h49q111 0 139.5 18.5t38.5 78.5l180 1079q3 19 4 33q0 32 -16 45q-23 18 -133 18h-49l10 64q70 -6 309 -6q270 0 346 6l-10 -64h-67q-135 0 -169 -19.5t-42 -78.5l-183 -1092q-4 -23 -4 -39q0 -21 8 -28q13 -14 82 -15h193q78 0 143.5 16.5t111.5 39t85 64.5 t61.5 75t45 90.5t32.5 89t27 90.5h51l-145 -528h-1108z" />
<glyph unicode="M" horiz-adv-x="2025" d="M121 0l10 63q74 0 123 14.5t71.5 42t29.5 46t14 49.5l170 1024q3 19 3 33q0 32 -16 45q-23 18 -133 18h-49l10 64h346q35 0 46.5 -5t17.5 -32l280 -1167l670 1165q16 29 27.5 34t48.5 5h346l-10 -64h-49q-111 0 -139.5 -18.5t-39.5 -77.5l-180 -1079q-3 -19 -3 -33 q0 -32 16 -45q23 -18 133 -19h49l-10 -63q-74 6 -291 6q-219 0 -297 -6l10 63h49q111 0 139.5 18.5t38.5 78.5l197 1177l-2 2l-748 -1302q-20 -37 -45 -37q-20 0 -32 37l-310 1288l-2 -2l-184 -1108q-8 -20 -5 -47t14 -49.5t56.5 -39t118.5 -16.5l-10 -63l-238 6z" />
<glyph unicode="N" horiz-adv-x="1667" d="M113 0l10 63q74 0 123 14.5t71.5 42t29.5 47t13 52.5l177 1061q6 33 4 37q-2 18 -205 18l10 64h346q31 0 40 -4t22 -25l581 -1069l146 879q8 23 5 50t-14.5 51t-56.5 39t-119 15l11 64l237 -6l242 6l-10 -64q-74 0 -123 -14t-71.5 -42t-30 -47.5t-13.5 -51.5l-186 -1123 q-6 -37 -12.5 -47t-27 -10t-32.5 25l-684 1263l-178 -1069q-8 -23 -5 -50.5t14 -51t56 -39t119 -15.5l-10 -63l-238 6z" />
<glyph unicode="O" horiz-adv-x="1728" d="M264 694q51 311 298 530.5t544 219.5q293 0 467 -218q135 -169 134 -394q0 -66 -11 -138q-51 -307 -298 -523t-544 -216q-293 0 -467 215q-135 166 -134 389q-1 65 11 135zM471 392q20 -136 86 -222t143.5 -124t165.5 -38q84 0 174 39t181.5 118t164 224.5t103.5 335.5 q13 98 13 181q0 72 -10 131q-22 128 -89.5 207t-145 114t-163.5 35q-84 0 -173.5 -36t-179.5 -109.5t-160.5 -209t-101.5 -313.5q-17 -115 -16 -209q-1 -67 8 -124z" />
<glyph unicode="P" horiz-adv-x="1519" d="M117 0l10 63h49q111 0 139.5 18.5t38.5 78.5l181 1079q3 19 3 33q0 32 -16 45q-23 18 -133 18h-49l10 64h748q213 0 340 -113q106 -94 106 -219q0 -24 -4 -49q-25 -154 -191.5 -262.5t-359.5 -108.5h-371l-81 -487q-3 -19 -4 -33q0 -32 16 -45q23 -18 133 -19h49l-10 -63 q-70 6 -301 6q-229 0 -303 -6zM621 700h307q98 0 173 26t114.5 58.5t66.5 85t34 80t13 68.5l6 47q2 16 2 55t-8 62.5t-28.5 55.5t-53.5 51.5t-87 32.5t-126 13h-207q-70 0 -87 -14t-27 -68z" />
<glyph unicode="Q" horiz-adv-x="1728" d="M264 694q51 311 298 530.5t544 219.5q293 0 467 -218q135 -169 134 -394q0 -66 -11 -138q-39 -238 -197 -421t-356 -261q31 -109 68.5 -153.5t107.5 -44.5t135.5 44t89.5 128q10 37 29 37q23 0 14 -43q-8 -49 -28.5 -106.5t-57.5 -122t-99.5 -106.5t-135.5 -42 q-47 0 -81 13t-54.5 45t-34 59.5t-19.5 82t-7 86.5l-3 97l-72 -15q-72 -16 -139 -16q-297 0 -470 216q-134 167 -133 388q-1 65 11 135zM454 463q9 -102 32.5 -175t66.5 -126t85 -84t91 -47q-17 29 -17 67q0 16 3 33q10 70 68.5 121t134.5 51q84 0 129 -56.5t77 -162.5 q293 178 367 610q15 104 15 192q0 71 -10 130q-22 133 -87.5 217t-145 122t-169.5 38q-86 0 -178.5 -39t-183.5 -117t-161.5 -219t-101.5 -324q-18 -94 -18 -173q0 -30 3 -58zM760 83q4 -26 30.5 -51.5t75.5 -25.5q100 0 195 45q-12 207 -152 207q-57 0 -99 -39t-50 -88 q-2 -11 -2 -23t2 -25z" />
<glyph unicode="R" horiz-adv-x="1638" d="M117 0l10 63h49q111 0 139.5 18.5t38.5 78.5l181 1079q3 19 3 33q0 32 -16 45q-23 18 -133 18h-49l10 64h664q231 0 377 -110q124 -94 124 -216q0 -21 -4 -43q-18 -109 -131.5 -200t-300.5 -134q115 -35 170 -106q39 -45 47 -93q7 -39 7 -123v-44v-126q0 -54 4 -93 t15 -63.5t31.5 -36t53.5 -11.5q29 0 55.5 10t62.5 54.5t56 117.5q10 33 31 33q22 0 21 -23q0 -5 -1 -12q-12 -70 -73.5 -147.5t-167.5 -77.5q-164 0 -248 84q-51 55 -57 125q-1 13 0 27q0 61 18 143q18 85 18 138q0 12 -1 23q-5 56 -50 109q-63 74 -199 74h-256l-86 -518 q-3 -19 -3 -33q0 -32 16 -45q23 -18 133 -19h49l-10 -63q-72 6 -297 6t-301 -6zM625 723h247q377 0 428 307q6 37 7 69q0 191 -217 226q-63 10 -187 10q-104 0 -123 -2q-37 -4 -48 -19.5t-19 -60.5z" />
<glyph unicode="S" horiz-adv-x="1251" d="M143 -27q0 11 4 31l70 410q4 23 6 31t9.5 14t19.5 6q10 0 16 -4t4 -15q-5 -41 -5 -78q0 -160 93 -245q117 -104 320 -105q133 0 228.5 88.5t113.5 204.5q4 26 4 51q0 80 -45 144q-37 49 -74 66.5t-133 41.5q-14 4 -48 11.5t-48 11.5q-139 35 -193.5 60.5t-107.5 95.5 q-60 83 -61 189q0 31 6 65q29 164 170 280.5t317 116.5q90 0 161.5 -29t98.5 -53.5t61 -65.5l95 121q23 27 37 27t16 -9q1 -5 1 -13t-1 -19q-2 -4 -2 -8l-70 -412q-4 -31 -10 -40t-25 -9q-16 0 -18 6t-2 31v25q0 163 -75 273q-81 118 -275 117q-127 0 -222.5 -79.5 t-113.5 -188.5q-3 -18 -3 -35q0 -57 30 -116q39 -78 151 -107l268 -67q102 -27 166 -95.5t83 -150.5q11 -47 11 -96q0 -36 -6 -72q-29 -170 -169 -297t-326 -127q-254 0 -377 147l-96 -122q-18 -25 -35 -25q-19 0 -19 18z" />
<glyph unicode="T" horiz-adv-x="1609" d="M260 926l117 460h1317l-39 -460h-51q7 76 6 136q0 144 -38 192q-54 69 -292 69q-98 0 -121 -4q-23 -2 -34 -13.5t-15 -23.5t-8 -41l-180 -1079q-6 -35 -1 -56.5t50 -32t149 -10.5h82l-10 -63q-82 6 -387 6q-303 0 -389 -6l10 63h82q150 0 186.5 19.5t44.5 79.5l181 1079 q8 35 3 54.5t-36 23.5q-18 4 -117 4q-86 0 -140.5 -5t-102.5 -22.5t-75.5 -41t-54 -72.5t-45 -106.5t-41.5 -149.5h-51z" />
<glyph unicode="U" horiz-adv-x="1667" d="M336 1335l10 64q70 -6 301 -6q229 0 303 6l-10 -64h-49q-111 0 -139.5 -18.5t-38.5 -77.5l-129 -776q-10 -77 -10 -138v-29q3 -71 30 -120t56.5 -79.5t70.5 -48t73 -24t64 -6.5q166 0 310.5 124t179.5 331l117 711q8 20 5 46.5t-14.5 49.5t-56.5 39t-119 16l10 64l242 -6 l244 6l-10 -64q-74 0 -123 -14t-71.5 -42t-30 -48.5t-13.5 -52.5l-123 -738q-29 -172 -189.5 -328.5t-373.5 -156.5q-219 0 -352 149q-106 119 -106 279q0 42 7 86l129 770q3 19 4 33q0 32 -16 45q-23 18 -133 18h-49z" />
<glyph unicode="V" horiz-adv-x="1667" d="M293 1335l10 64l258 -6q223 0 297 6l-10 -64q-166 0 -176 -59q-2 -10 4 -35l250 -1051l569 1004q18 29 21 41q1 7 1 13q0 29 -24 55q-29 31 -107 32l11 64l231 -6q104 0 201 6l-10 -64q-174 0 -250 -133l-686 -1206q-14 -25 -24.5 -33t-35.5 -8q-23 0 -29 8t-12 33 l-301 1261q-12 53 -41.5 65.5t-146.5 12.5z" />
<glyph unicode="W" horiz-adv-x="2265" d="M291 1335l10 64l248 -6q221 0 295 6l-10 -64q-172 0 -183 -61q-2 -8 4 -37l179 -1010l446 877l10 24q2 6 -11 78t-19 86q-12 27 -42 35t-120 8l10 64l246 -6q219 0 295 6l-11 -64q-172 0 -182 -61q-2 -4 0 -16.5t2 -14.5l182 -1016l488 959q12 25 16 41l2 14q0 36 -36 62 q-42 31 -121 32l10 64l242 -6q96 0 188 6l-10 -64q-164 -2 -234 -143l-610 -1196q-23 -41 -49 -41q-25 0 -33 39v2l-186 1055l-537 -1055q-23 -41 -49 -41q-14 0 -20.5 5t-8.5 13.5t-6 20.5l-221 1261q-4 31 -13.5 46.5t-34 23.5t-48 9t-78.5 1z" />
<glyph unicode="X" horiz-adv-x="1667" d="M80 0l10 63q211 0 328 132l444 501l-309 568q-23 43 -56.5 57t-125.5 14h-39l10 64l264 -6q229 0 305 6l-10 -64q-55 0 -95 -18.5t-44 -40.5l8 -31l223 -403l310 348q31 35 30 55q1 6 1 13q0 26 -20 48q-26 28 -85 29l10 64q72 -6 260 -6l230 6l-11 -64q-211 0 -325 -129 l-371 -420l350 -649q27 -47 65 -60.5t119 -13.5h39l-10 -63l-264 6q-229 0 -303 -6l10 63q61 2 98 21.5t39 38.5l-10 31l-264 487l-387 -436q-27 -29 -29 -51q-1 -6 -1 -13q0 -24 20 -47q25 -29 86 -31l-11 -63q-80 6 -260 6z" />
<glyph unicode="Y" horiz-adv-x="1667" d="M276 1335l11 64l266 -6q231 0 305 6l-10 -64q-139 0 -148 -49l11 -41l295 -602l458 555q27 37 31 59q2 9 2 17q0 27 -21 42q-28 19 -77 19l10 64l233 -6q106 0 203 6l-10 -64q-184 -4 -289 -131l-532 -645l-68 -395q-3 -20 -3 -35q0 -34 15 -47q23 -18 136 -19h47 l-11 -63q-72 6 -297 6t-301 -6l11 63h49q111 0 139.5 18.5t38.5 78.5l68 399l-346 707q-20 41 -56.5 55t-120.5 14h-39z" />
<glyph unicode="Z" horiz-adv-x="1370" d="M154 35q2 18 20 41l1057 1259h-350q-217 0 -333 -90t-163 -307h-51l100 461h967q45 0 47 -13q1 -4 1 -9t-1 -11q-4 -20 -21 -39l-1054 -1257h372q141 0 235.5 31.5t151 102t85 144.5t57.5 199h51l-127 -547h-997q-35 0 -43 5q-5 3 -6 16q1 6 2 14z" />
<glyph unicode="[" horiz-adv-x="653" d="M199 -512l342 2048h290l-14 -82h-209l-313 -1884h209l-15 -82h-290z" />
<glyph unicode="\" horiz-adv-x="1024" d="M365 1495q8 41 47 41q29 0 37 -45l376 -1925l4 -37q-8 -41 -49 -41q-29 0 -37 45l-374 1925z" />
<glyph unicode="]" horiz-adv-x="653" d="M-10 -512l14 82h209l313 1884h-209l15 82h291l-342 -2048h-291z" />
<glyph unicode="^" horiz-adv-x="1138" d="M188 1196l635 328l525 -328l-31 -45l-516 252l-596 -252z" />
<glyph unicode="_" horiz-adv-x="1667" d="M-47 -283l8 54h1667l-8 -54h-1667z" />
<glyph unicode="`" d="M526 1350q4 27 31 50t55 23q33 0 66 -51l201 -297l-43 -39l-283 252q-33 33 -27 62z" />
<glyph unicode="a" horiz-adv-x="1255" d="M70 0l8 51q47 2 83 15.5t62.5 43t36.5 45.5l31 48l469 846l14 22q4 6 13.5 11t23.5 5q29 0 37 -45l201 -909q10 -53 34.5 -67.5t110.5 -14.5l-8 -51q-147 6 -197 6l-219 -6l8 51q119 0 120 64q0 27 -24 116l-26 115h-424q-100 -180 -102 -203q0 -12 -1.5 -31.5t18 -39 t58.5 -21.5l-8 -51l-168 6q-83 0 -151 -6zM453 397h383l-107 494z" />
<glyph unicode="b" horiz-adv-x="1187" d="M94 0l8 51q100 0 127 16.5t37 79.5l127 758q3 21 4 37q0 32 -14 43q-20 16 -121 16l8 52h576q160 0 250 -79q76 -67 76 -150q0 -15 -3 -31q-14 -86 -100 -152t-203 -90q131 -16 206 -92q61 -62 61 -141q0 -17 -3 -35q-18 -113 -135.5 -198t-281.5 -85h-619zM399 139 q-4 -27 -3 -45q0 -22 5 -29q10 -13 66 -14h201q127 0 203.5 74t89.5 158q4 22 3 44q0 28 -6 57q-10 52 -58 96t-128 44h-307zM471 569h229q141 0 217 73t89 151q4 10 4 24q0 13 -3 29q-7 35 -19.5 69.5t-55.5 60t-109 25.5h-196q-55 0 -71.5 -14t-27.5 -74z" />
<glyph unicode="c" horiz-adv-x="1210" d="M193 526q39 231 235.5 393t429.5 162q170 0 277 -129l96 105q25 25 35 24q17 0 17 -19q0 -12 -5 -30l-57 -346q-4 -31 -10.5 -40t-25 -9t-22.5 27q2 182 -87 274t-214 92q-37 0 -80 -8t-110.5 -39t-123.5 -82t-107.5 -148.5t-71.5 -226.5q-11 -83 -11 -148q0 -23 1 -45 q5 -81 38 -136.5t68 -90t84 -53t83 -24.5t64 -6q137 0 260 92t160 247q6 33 29 33q27 0 22 -33q-25 -145 -165 -268t-328 -123q-233 0 -377 162q-113 127 -113 298q1 46 9 95z" />
<glyph unicode="d" horiz-adv-x="1277" d="M92 0l8 51q100 0 127 16.5t37 79.5l127 758q3 21 4 37q0 32 -14 43q-20 16 -121 16l8 52h576q217 0 335 -159q90 -121 89 -276q0 -48 -8 -100q-35 -213 -207 -365.5t-385 -152.5h-576zM403 139q-4 -27 -3 -45q0 -22 6 -29q10 -13 65 -14h158q207 0 334 148 q94 111 127 319q14 84 13 153q0 123 -44 197q-82 133 -271 133h-157q-55 0 -71.5 -14t-27.5 -74z" />
<glyph unicode="e" horiz-adv-x="1142" d="M88 0l8 51q100 0 127 16.5t37 79.5l125 752q3 21 3 37q0 32 -13 43q-20 16 -121 16l8 52h912l-19 -347h-51q2 29 2 56q0 127 -42 178q-50 61 -224 61h-209q-55 0 -70.5 -13t-25.5 -75l-58 -338h144q111 0 149.5 36t56.5 143h52l-68 -408h-51q7 43 7 74q0 47 -16 68 q-28 36 -139 36h-143l-63 -379q-4 -27 -4 -45q0 -22 6 -29q10 -13 65 -14h221q129 0 206 38t117 105.5t81 202.5h51l-125 -397h-936z" />
<glyph unicode="f" horiz-adv-x="1097" d="M88 0l8 51q100 0 127 16.5t37 79.5l125 752q3 21 3 37q0 32 -13 43q-20 16 -121 16l8 52h889l-18 -347h-52q3 38 3 71q0 117 -40 164q-51 60 -219 60h-194q-55 0 -70.5 -13t-25.5 -75l-60 -358h137q111 0 148 36t55 142h51l-67 -408h-51q8 45 7 77q0 45 -15 66 q-26 36 -136 36h-137l-57 -344q-4 -23 -4 -40q0 -38 19 -48q28 -14 150 -15l-8 -51l-250 6z" />
<glyph unicode="g" horiz-adv-x="1312" d="M193 526q39 231 235.5 393t427.5 162q178 0 277 -129l96 105q25 25 35 24q23 0 12 -49l-57 -346q-4 -31 -10.5 -40t-25 -9t-22.5 27q2 182 -86 274t-213 92q-39 0 -84 -8t-111.5 -40t-122 -83t-105.5 -148.5t-70 -224.5q-11 -84 -12 -151q0 -19 1 -37q4 -80 36 -136.5 t68 -91t84 -54t85 -26.5t74 -7q104 0 180 40q41 23 65.5 49.5t29.5 44t11 50.5l10 61q4 22 5 39q0 33 -17 46q-25 19 -135 20h-41l10 51q70 -6 262 -6q100 0 205 6l-10 -51q-78 0 -98.5 -15.5t-30.5 -76.5l-39 -232q-6 -47 -27 -47q-16 0 -45.5 34t-40.5 58 q-109 -123 -323 -123q-240 0 -381 163q-111 128 -111 296q1 46 9 96z" />
<glyph unicode="h" horiz-adv-x="1255" d="M88 0l8 51q100 0 127 16.5t37 79.5l127 758q3 21 3 37q0 32 -13 43q-20 16 -121 16l8 52l219 -6l224 6l-9 -52q-100 0 -126.5 -16t-36.5 -80l-56 -332h490l55 332q3 21 3 37q0 32 -13 43q-20 16 -121 16l8 52l219 -6l223 6l-8 -52q-100 0 -126.5 -16t-37.5 -80l-127 -758 q-3 -21 -3 -37q0 -32 14 -42q20 -16 121 -17l-9 -51l-219 6l-223 -6l8 51q100 0 127 16.5t37 79.5l64 375h-490l-63 -375q-3 -21 -4 -37q0 -32 14 -42q20 -16 121 -17l-9 -51l-219 6z" />
<glyph unicode="i" horiz-adv-x="618" d="M80 0l8 51q109 0 135.5 15.5t36.5 83.5l127 753q3 23 3 39q0 33 -13 44q-20 15 -129 15l8 52l227 -6l232 6l-8 -52q-109 0 -135.5 -15t-36.5 -83l-127 -753q-3 -23 -4 -40q0 -33 14 -43q20 -15 129 -16l-8 -51l-228 6z" />
<glyph unicode="j" horiz-adv-x="868" d="M123 172q8 43 35.5 65.5t64.5 22.5q35 0 55.5 -24.5t14.5 -59.5q-4 -31 -27.5 -57.5t-75.5 -28.5q49 -74 158 -74q59 0 119.5 54.5t79.5 167.5l110 661q4 22 5 39q0 31 -15 44q-23 19 -127 19h-37l9 52q80 -6 247 -6q121 0 197 6l-8 -52q-82 0 -99.5 -18t-33.5 -115 l-97 -573q-16 -96 -20 -107q-35 -98 -129 -157.5t-202.5 -59.5t-173.5 60q-53 49 -53 112q0 14 3 29z" />
<glyph unicode="k" horiz-adv-x="1302" d="M88 0l8 51q100 0 127 16.5t37 79.5l127 758q3 21 3 37q0 32 -13 43q-20 16 -121 16l8 52l219 -6l224 6l-9 -52q-100 0 -126.5 -16t-36.5 -80l-76 -454l528 403q76 59 84 109q6 33 -27 38l9 52q86 -6 188 -6q57 0 131 6l-8 -52q-55 -4 -94 -18t-155 -93t-331 -249 l275 -479q41 -72 75.5 -91.5t92.5 -19.5l-8 -51q-84 6 -172 6l-216 -6l9 51q68 0 73 43q1 5 1 11q0 34 -31 83l-211 367l-226 -174l-38 -234q-3 -21 -4 -37q0 -32 14 -42q20 -16 121 -17l-9 -51l-219 6z" />
<glyph unicode="l" horiz-adv-x="1050" d="M88 0l8 51q100 0 127 16.5t37 79.5l127 758q3 21 3 37q0 32 -13 43q-20 16 -121 16l8 52l225 -6l254 6l-8 -52q-123 0 -156.5 -14t-46.5 -88l-126 -760q-4 -27 -4 -45q0 -22 6 -29q10 -13 65 -14h129q82 0 145.5 22.5t100.5 51.5t65.5 82t41 89t28.5 101h51l-104 -397 h-842z" />
<glyph unicode="m" horiz-adv-x="1529" d="M96 0l8 51q51 0 87 16.5t53.5 46t23.5 48t11 45.5l116 698q3 21 4 37q0 32 -14 43q-20 16 -121 16l8 52h248q35 0 46.5 -5.5t17.5 -31.5l209 -862l493 860q16 29 27.5 34t48.5 5h248l-8 -52q-100 0 -127 -16t-37 -80l-127 -758q-3 -21 -4 -37q0 -32 14 -42 q20 -16 121 -17l-8 -51q-203 6 -211 6l-215 -6l8 51q100 0 126.5 16.5t37.5 79.5l141 844l-2 2l-549 -956q-20 -37 -45 -37q-20 0 -33 37l-225 942l-2 -2l-129 -770q-4 -24 -4 -44q0 -112 125 -112l-8 -51q-76 6 -175 6z" />
<glyph unicode="n" horiz-adv-x="1255" d="M88 0l8 51q51 0 87 16.5t53.5 46t23.5 48t10 45.5l129 780q-37 14 -143 14l8 52h246q23 0 30 -1t13 -6.5t14 -19.5l434 -788l103 608q4 24 4 44q0 112 -125 111l8 52q74 -6 174 -6l178 6l-8 -52q-51 0 -87 -16t-53 -46t-23.5 -48.5t-10.5 -44.5l-133 -793q-4 -23 -6 -32 t-9 -15t-22 -6q-18 0 -30 23l-494 892l-16 25l-123 -733q-4 -24 -4 -44q0 -112 125 -112l-9 -51q-78 6 -174 6z" />
<glyph unicode="o" horiz-adv-x="1302" d="M193 522q37 229 224 394t414.5 165t359.5 -165q103 -129 103 -297q0 -47 -8 -97q-39 -231 -226.5 -391t-412.5 -160t-359 161q-104 125 -104 291q0 47 9 99zM368 293q15 -100 66 -159.5t106.5 -84t115 -24.5t124 25.5t133 81.5t123 162.5t76.5 250.5q10 76 10 138 q0 55 -8 99q-16 94 -69.5 149.5t-107.5 77t-114 21.5q-57 0 -120.5 -23.5t-131 -73.5t-123 -151.5t-77.5 -236.5q-10 -83 -10 -150q0 -56 7 -102z" />
<glyph unicode="p" horiz-adv-x="1142" d="M92 0l8 51q100 0 127 16.5t37 79.5l127 758q3 21 4 37q0 32 -14 43q-20 16 -121 16l8 52h555q170 0 266 -87q80 -73 79 -166q0 -18 -3 -36q-18 -117 -144 -201t-280 -84h-274l-55 -332q-3 -21 -4 -37q0 -32 14 -42q20 -16 121 -17l-8 -51l-220 6zM469 526h223 q90 0 151.5 23.5t90.5 68t39 74t16 72.5q6 35 8 57q0 5 1 11q0 20 -6 50q-7 38 -27.5 60.5t-69.5 40.5t-123 18h-141q-55 0 -71.5 -14t-27.5 -74z" />
<glyph unicode="q" horiz-adv-x="1302" d="M193 522q37 229 224 394t414.5 165t359.5 -165q103 -129 103 -297q0 -47 -8 -97q-31 -182 -152.5 -317t-263.5 -189q14 -47 32 -77.5t37 -41t31.5 -13.5t28.5 -3q47 0 94.5 26.5t65.5 80.5q10 35 29 35q20 0 16 -39q-16 -94 -81.5 -186.5t-166.5 -92.5q-41 0 -70.5 16.5 t-45 38t-24.5 66.5t-11 75l-6 91q-61 -20 -152 -21q-225 0 -359 161q-104 125 -104 291q0 47 9 99zM354 321q6 -81 40 -139.5t68 -88.5t75 -46l-5 14q-4 16 0 43q8 51 54.5 90t105.5 39q37 0 64.5 -13t47 -44t27 -46t21.5 -50q211 129 264 442q13 80 13 147q0 150 -66 236 q-96 125 -240 125q-63 0 -129.5 -26.5t-134 -83t-121 -160t-76.5 -238.5q-10 -85 -10 -149q0 -28 2 -52zM577 76q0 -16 19 -34q20 -19 59 -19q82 0 140 28q-8 137 -111 137q-41 0 -71.5 -24.5t-34.5 -59.5q1 -5 0.5 -7.5t-1 -9.5t-0.5 -11z" />
<glyph unicode="r" horiz-adv-x="1232" d="M92 0l8 51q100 0 127 16.5t37 79.5l127 758q3 21 4 37q0 32 -14 43q-20 16 -121 16l8 52h492q182 0 292 -83q94 -71 93 -163q0 -15 -2 -31q-14 -90 -103.5 -157.5t-208.5 -96.5q51 -20 83 -49t45.5 -66.5t16.5 -58t5 -61.5q8 -190 18 -221q23 -49 64 -50q16 0 32.5 4.5 t46 36t46.5 86.5q0 27 29 27q22 0 21 -20q0 -5 -1 -11q-8 -51 -55 -109.5t-133 -58.5q-143 0 -201 68q-39 45 -43 88q-1 8 -1 17q0 41 15 110q12 66 12 110t-24 74q-55 66 -158 66h-184l-59 -357q-3 -21 -4 -37q0 -32 14 -42q20 -16 121 -17l-9 -51l-217 6zM473 549h180 q94 0 159 22.5t94.5 62.5t42 70.5t18.5 71.5q5 31 5 58q0 40 -11 69q-18 49 -69.5 68.5t-94.5 24.5t-117 5q-92 0 -109 -6q-25 -12 -39 -82z" />
<glyph unicode="s" horiz-adv-x="937" d="M104 -9q0 12 5 29l45 277q4 23 6 31t9 14t19 6q23 0 23 -18q-5 -32 -5 -61q0 -107 66 -167q86 -80 240 -79q100 0 172 65.5t84 147.5q4 23 4 44q0 66 -43 109q-29 31 -54.5 42t-111.5 32q-147 35 -191 52t-81 60q-60 73 -60 160q0 23 5 47q20 123 126.5 211t243.5 88 q154 0 240 -100q39 45 47 53q41 47 53 47q14 0 17 -12q1 -3 0 -7q0 -12 -5 -30l-47 -278q-4 -31 -10 -40t-24 -9q-20 0 -21 26q1 12 1 23q0 28 -4 55q-5 37 -25.5 96.5t-79 95t-148.5 35.5q-98 0 -168 -59t-82 -135q-3 -18 -3 -35q0 -102 108 -148q4 -2 120 -30 q135 -33 176.5 -51.5t86.5 -73.5l14 -25q16 -25 28 -78q7 -31 6 -63q0 -23 -3 -47q-20 -127 -128 -223.5t-251 -96.5q-186 0 -283 101q-31 -37 -47 -54q-41 -47 -53 -47q-17 1 -17 20z" />
<glyph unicode="t" horiz-adv-x="1210" d="M190 694l86 346h1006l-29 -346h-51q6 58 6 103q0 105 -30 141q-43 51 -211 51q-88 0 -106.5 -11t-31.5 -77l-122 -745q-4 -22 -5 -40q0 -33 16 -45q24 -19 136 -20h43l-8 -51q-78 6 -280.5 6t-284.5 -6l8 51h43q113 0 142.5 19.5t41.5 85.5l123 745q6 30 6 49q0 22 -8 28 q-14 11 -102 11q-172 0 -231.5 -51t-104.5 -244h-52z" />
<glyph unicode="u" horiz-adv-x="1255" d="M256 1001l8 52l219 -6l224 6l-9 -52q-100 0 -126.5 -16t-36.5 -80l-93 -551q-7 -61 -6 -108v-23q2 -55 25.5 -92t46 -58.5t55.5 -32.5t53.5 -14t40.5 -3q119 0 231.5 89t141.5 253l80 481q4 24 4 44q0 112 -125 111l8 52q84 -6 172 -6q94 0 174 6l-8 -52 q-145 0 -170 -127l-90 -544q-23 -127 -144.5 -243t-285.5 -116t-263 101q-92 93 -92 211q0 10 1 20q0 25 20 154l74 444q5 26 5 45q0 29 -12 39q-20 16 -122 16z" />
<glyph unicode="v" horiz-adv-x="1255" d="M217 1001l8 52q80 -6 191 -6l217 6l-8 -52q-104 0 -115 -55q-2 -10 8 -49l184 -737l406 692q25 39 27 61q3 13 2 24q0 57 -72 64l8 52q80 -6 166 -6q76 0 143 6l-8 -52q-125 -8 -200 -135l-498 -848l-17 -24q-4 -6 -13 -11.5t-23 -5.5q-18 0 -24.5 9.5t-10.5 27.5v4 l-232 902q-14 53 -35.5 67t-103.5 14z" />
<glyph unicode="w" horiz-adv-x="1712" d="M215 1001l8 52q80 -6 183 -6l217 6l-9 -52q-113 0 -122 -59q-2 -14 4 -39l133 -713l327 629l13 27l-11 51q-8 51 -16 66q-10 25 -31.5 31.5t-81.5 6.5l9 52q80 -6 182 -6l217 6l-8 -52q-111 0 -121 -59q-4 -20 2 -43l135 -709l342 660q16 25 19 51q2 9 1 17q0 26 -14 50 q-18 32 -77 33l8 52l176 -6q74 0 141 6l-8 -52q-115 -6 -188 -147l-437 -836q-23 -41 -49 -41q-29 0 -35 46l-139 745l-393 -752q-18 -39 -47 -39t-35 39l-172 916q-8 45 -31.5 57t-91.5 12z" />
<glyph unicode="x" horiz-adv-x="1255" d="M59 0l9 51q92 2 156.5 41t131.5 111l287 317l-217 389q-33 61 -60.5 76.5t-115.5 15.5l8 52q88 -6 195 -6l221 6l-8 -52q-68 -4 -78 -57q-4 -18 10 -43l152 -264l198 217q37 37 43 76q2 9 2 17q0 47 -51 54l8 52l187 -6q88 0 168 6l-9 -52q-145 -4 -266 -127l-256 -280 q281 -500 291 -510q33 -33 139 -33l-8 -51q-94 6 -192 6l-224 -6l8 51q70 4 78 55q2 18 -8 37l-188 334l-234 -252q-59 -70 -65 -102l-2 -18q0 -49 53 -54l-8 -51q-86 6 -187 6q-92 0 -168 -6z" />
<glyph unicode="y" horiz-adv-x="1255" d="M207 1001l8 52q90 -6 197 -6l223 6l-8 -52q-84 0 -92 -40q-2 -23 16 -56l213 -416l313 373q39 47 45 78q1 6 1 11q0 45 -50 50l8 52q80 -6 166 -6q78 0 146 6l-9 -52q-131 -6 -245 -143l-371 -438l-43 -266q-5 -27 -5 -46q0 -30 12 -40q19 -16 122 -17l-8 -51l-217 6 l-219 -6l8 51q100 0 126.5 16.5t37.5 79.5l45 275l-265 514q-20 41 -48.5 53t-106.5 12z" />
<glyph unicode="z" horiz-adv-x="1028" d="M111 31q0 14 20 37l789 933h-252q-160 0 -247 -65.5t-122 -228.5h-51l74 346h725q33 0 42 -4q6 -3 6 -14q0 -5 -1 -11q0 -12 -19 -35l-786 -932h266q104 0 175 22.5t113 75t64.5 107.5t42.5 150h51l-94 -412h-749q-35 0 -43 4q-5 3 -6 14q1 5 2 13z" />
<glyph unicode="{" horiz-adv-x="1024" d="M233 512q2 23 33 23q131 8 228 92q45 41 59 84t41 198l63 375q20 109 147.5 180.5t285.5 71.5q16 0 22 -1t11 -6t3 -16q-4 -18 -22 -22q-66 -4 -118 -21.5t-72.5 -32t-51.5 -40.5q-41 -37 -55 -80t-35 -164l-61 -369q-6 -35 -15.5 -59.5t-36 -69.5t-87 -81.5 t-148.5 -61.5q199 -59 203 -211q0 -14 -29 -186l-51 -308q-12 -74 -10 -98q6 -66 61 -118t166 -58q29 -2 29 -22q-4 -23 -45 -23q-172 0 -271 78q-66 51 -75 115.5t12 148.5l67 406q12 72 -6 124t-59 77.5t-78 37.5t-76 14q-29 3 -29 23z" />
<glyph unicode="|" horiz-adv-x="569" d="M170 -444l319 1912q10 68 51.5 68t30.5 -68l-319 -1912q-4 -23 -7 -32t-15.5 -22.5t-30.5 -13.5q-43 0 -29 68z" />
<glyph unicode="}" horiz-adv-x="1024" d="M66 -489q4 18 22 22q68 4 120 21.5t72.5 32t51.5 40.5q41 35 54 77t34 167l63 369q4 25 8.5 44t22.5 55t47 63.5t83 58.5t126 51q-199 59 -203 211q0 27 27 186l51 308q12 74 10 98q-6 66 -61 118t-166 58q-27 2 -29 22q4 23 45 23q170 0 273 -78q63 -51 73.5 -115.5 t-12.5 -148.5l-67 -406q-12 -72 7 -124t59 -77.5t77 -37.5t78 -14q27 -2 29 -23q-4 -23 -33 -23q-127 -8 -230 -92q-45 -41 -59 -86t-41 -196l-61 -375q-20 -109 -148.5 -180.5t-286.5 -71.5q-14 0 -20 1t-12 6.5t-4 15.5z" />
<glyph unicode="~" horiz-adv-x="1138" d="M72 430l125 90q45 33 129 72q88 37 155 37q84 0 195 -70q117 -76 198 -76q139 0 338 146l23 -35l-125 -90q-47 -35 -129 -72q-84 -37 -156 -37q-86 0 -192 70q-121 76 -201 76q-139 0 -338 -146z" />
<glyph unicode="&#xa2;" horiz-adv-x="1210" d="M192.5 526.5q36.5 221.5 218 379t404.5 173.5l6 35q4 31 35 31q12 0 20.5 -9.5t6.5 -21.5l-6 -33q160 -6 258 -129l96 105q25 25 35 24q14 0 16 -12t-4 -37l-57 -346q-4 -31 -10.5 -40t-25 -9t-22.5 27q2 178 -85 271t-210 95l-168 -1007q135 2 257 94t159 245 q6 33 29 33q27 0 22 -33q-25 -141 -160 -261.5t-315 -129.5l-6 -32q-2 -12 -13 -21.5t-24 -9.5q-29 0 -24 31l6 34q-219 16 -347 174t-91.5 379.5zM360.5 330q14.5 -84 40 -138.5t71.5 -90t85 -52t82 -22.5l168 999q-45 -8 -89 -22.5t-101.5 -51.5t-103.5 -88t-86 -139 t-58 -199q-23 -112 -8.5 -196z" />
<glyph unicode="&#xa3;" horiz-adv-x="1667" d="M172 190q18 106 123.5 170t234.5 64q109 0 207 -72q10 106 15 318h-375l10 61h365q0 188 22 322q25 150 161 248t300 98q147 0 242.5 -58.5t78.5 -166.5q-8 -41 -39.5 -68t-70.5 -27t-62.5 28t-15.5 67q6 39 38 66.5t71 27.5h4q-61 78 -254 78q-111 0 -201 -87.5 t-108 -205.5q-25 -145 -25 -322h328l-11 -61h-319q-8 -295 -31 -422v-6q33 -31 61.5 -60.5t62.5 -56.5t67.5 -46.5t75.5 -31.5t87 -12q115 0 205 93t113 222h53q-31 -176 -107.5 -299t-199.5 -123q-88 0 -169 43t-136 104l-123 128q-43 -121 -184.5 -184.5t-313.5 -63.5 q-92 0 -144 69.5t-36 165.5zM225 190q-12 -74 28 -128t109 -54q129 0 237 77t128 194l4 24q-100 68 -211 68q-109 0 -196 -48.5t-99 -132.5z" />
<glyph unicode="&#xa5;" horiz-adv-x="1667" d="M276 1335l11 64l266 -6q231 0 305 6l-10 -64q-139 0 -148 -49l11 -41l266 -543h78l409 496q27 37 31 59q8 39 -19.5 58.5t-76.5 19.5l10 64l233 -6q106 0 203 6l-10 -64q-184 -4 -289 -131l-416 -502h320l-10 -61h-361l-65 -82l-31 -176h414l-11 -61h-413l-27 -158 q-10 -63 12.5 -82t135.5 -19h47l-11 -63q-72 6 -297 6t-301 -6l11 63h49q111 0 139.5 18.5t38.5 78.5l27 162h-410l10 61h410l31 176l-41 82h-357l11 61h315l-274 564q-20 41 -56.5 55t-120.5 14h-39z" />
<glyph unicode="&#xa9;" horiz-adv-x="1398" d="M117 700q47 289 286.5 494t530.5 205q289 0 459 -205t123 -494q-47 -291 -287 -495.5t-529 -204.5q-291 0 -460.5 204.5t-122.5 495.5zM199 700q-43 -256 108.5 -437t407.5 -181t466 181t253 437q43 254 -107.5 435.5t-406.5 181.5t-467 -180.5t-254 -436.5zM428 700.5 q27 163.5 163 278.5t298 115q119 0 198 -97l70 84q10 12 21 13q8 0 6 -27l-43 -256q-4 -25 -21 -27q-16 0 -16 19q2 121 -57.5 189.5t-149.5 68.5q-29 0 -61.5 -6t-80.5 -30t-89 -60.5t-77 -105t-50 -161.5q-18 -106 1 -182t65 -111.5t89 -50t86 -14.5q98 0 185.5 65.5 t111.5 178.5q4 16 16.5 16t8.5 -18q-16 -104 -114.5 -190.5t-227.5 -86.5q-162 0 -260.5 116t-71.5 279.5z" />
<glyph unicode="&#xad;" horiz-adv-x="774" d="M117 383l20 119h572l-21 -119h-571z" />
<glyph unicode="&#xae;" horiz-adv-x="1398" d="M117 700q47 289 286.5 494t530.5 205q289 0 459 -205t123 -494q-47 -291 -287 -495.5t-529 -204.5q-291 0 -460.5 204.5t-122.5 495.5zM199 700q-43 -256 108.5 -437t407.5 -181t466 181t253 437q43 254 -107.5 435.5t-406.5 181.5t-467 -180.5t-254 -436.5zM395 342 l6 33h25q59 0 74.5 9t19.5 42l94 571q4 18 1 29.5t-20 17t-58 5.5h-25l6 32h350q123 0 201 -58t64 -136q-10 -57 -71 -105.5t-159 -70.5q61 -18 90 -58q20 -25 24.5 -49t4.5 -87.5t1 -84t5 -48.5t16.5 -35t32.5 -7q68 0 92 96q6 16 17 17q12 0 12 -19q-4 -20 -16.5 -44.5 t-42 -49.5t-70.5 -25q-86 0 -131 45q-27 29 -30 66t10 90q12 55 10 85t-27 59q-39 39 -106 38h-136l-45 -274q-4 -18 -1 -29.5t20.5 -16.5t58.5 -5h25l-6 -33q-39 2 -158 2t-158 -2zM664 725h131q201 0 225 162q8 47 -4 78.5t-30.5 48t-55.5 25t-59.5 9.5t-61.5 1 q-55 0 -64 -2q-18 -2 -24 -10.5t-10 -30.5z" />
<glyph unicode="&#xb4;" d="M614 1075l299 297q51 51 82 51q29 0 47.5 -23.5t14.5 -49.5q-6 -33 -47 -62l-369 -252z" />
<glyph unicode="&#x2000;" horiz-adv-x="768" />
<glyph unicode="&#x2001;" horiz-adv-x="1536" />
<glyph unicode="&#x2002;" horiz-adv-x="768" />
<glyph unicode="&#x2003;" horiz-adv-x="1536" />
<glyph unicode="&#x2004;" horiz-adv-x="512" />
<glyph unicode="&#x2005;" horiz-adv-x="382" />
<glyph unicode="&#x2006;" horiz-adv-x="256" />
<glyph unicode="&#x2007;" horiz-adv-x="256" />
<glyph unicode="&#x2008;" horiz-adv-x="190" />
<glyph unicode="&#x2009;" horiz-adv-x="307" />
<glyph unicode="&#x200a;" horiz-adv-x="83" />
<glyph unicode="&#x2010;" horiz-adv-x="774" d="M117 383l20 119h572l-21 -119h-571z" />
<glyph unicode="&#x2011;" horiz-adv-x="774" d="M117 383l20 119h572l-21 -119h-571z" />
<glyph unicode="&#x2012;" horiz-adv-x="774" d="M117 383l20 119h572l-21 -119h-571z" />
<glyph unicode="&#x2013;" d="M117 522l6 45h1073l-6 -45h-1073z" />
<glyph unicode="&#x2014;" horiz-adv-x="2265" d="M145 522l7 45h2148l-6 -45h-2149z" />
<glyph unicode="&#x2018;" horiz-adv-x="653" d="M356 1022q18 109 81 207t115 144t69 46q23 0 18 -22l-14 -19q-188 -154 -224 -358q-4 -25 -4 -43q39 47 99 47q51 0 74.5 -33t17.5 -76q-8 -43 -42 -75.5t-85 -32.5q-68 0 -93.5 62.5t-11.5 152.5z" />
<glyph unicode="&#x2019;" horiz-adv-x="653" d="M385 831l12 19q190 156 224 358q6 37 6 43q-39 -47 -101 -47q-51 0 -73.5 32t-16.5 77q6 43 41 75.5t86 32.5q68 0 92.5 -62.5t10.5 -152.5q-18 -109 -80 -207t-114 -144t-69 -46q-22 -1 -18 22z" />
<glyph unicode="&#x201c;" horiz-adv-x="1071" d="M356 1022q18 109 81 207t115 144t69 46q23 0 18 -22l-14 -19q-188 -154 -224 -358q-4 -25 -4 -43q39 47 99 47q51 0 74.5 -33t17.5 -76q-8 -43 -42 -75.5t-85 -32.5q-68 0 -93.5 62.5t-11.5 152.5zM774 1022q18 109 81 207t115 144t68 46q23 0 19 -22l-15 -19 q-188 -154 -223 -358q-4 -25 -4 -43q39 47 98 47q51 0 75 -33t18 -76q-8 -43 -42 -75.5t-85 -32.5q-68 0 -93.5 62.5t-11.5 152.5z" />
<glyph unicode="&#x201d;" horiz-adv-x="1071" d="M387 831l12 19q190 156 224 358q6 37 6 43q-39 -47 -101 -47q-51 0 -73.5 32t-16.5 77q6 43 41 75.5t86 32.5q68 0 92.5 -62.5t10.5 -152.5q-18 -109 -80 -207t-114 -144t-68 -46q-23 -1 -19 22zM805 831l12 19q190 156 223 358l7 43q-39 -47 -101 -47q-51 0 -73.5 32 t-16.5 77q6 43 41 75.5t86 32.5q68 0 92.5 -62.5t9.5 -152.5q-18 -109 -79.5 -207t-113.5 -144t-69 -46q-22 -1 -18 22z" />
<glyph unicode="&#x2022;" horiz-adv-x="1728" d="M590 565q25 150 151.5 259.5t278.5 109.5q150 0 241 -108.5t66 -260.5q-25 -150 -151.5 -259t-278.5 -109q-150 0 -241 108t-66 260z" />
<glyph unicode="&#x2026;" horiz-adv-x="1474" d="M237.5 108.5q8.5 45.5 45 77t82 31.5t72 -31.5t18 -77t-45 -77t-81.5 -31.5t-72 31.5t-18.5 77zM647 108.5q8 45.5 45 77t82 31.5t71.5 -31.5t18.5 -77t-45 -77t-82 -31.5t-71.5 31.5t-18.5 77zM1057 108.5q8 45.5 45 77t82 31.5t71.5 -31.5t18.5 -77t-45 -77t-82 -31.5 t-71.5 31.5t-18.5 77z" />
<glyph unicode="&#x202f;" horiz-adv-x="307" />
<glyph unicode="&#x205f;" horiz-adv-x="382" />
<glyph unicode="&#x20ac;" horiz-adv-x="1345" d="M213 582l10 20q6 14 23 14h98q2 27 10 84q6 43 19 84h-107q-10 0 -14 8.5t0 18.5l10 20q4 14 21 15h106q76 221 234 379q215 219 475 219q141 0 231 -94l96 88q6 6 17 6h6q20 0 16 -21l-53 -317q-4 -20 -25 -21h-20q-16 0 -16 19q6 117 -61.5 197.5t-180.5 80.5 q-98 0 -191.5 -53t-162.5 -141q-109 -133 -162 -342h639q10 0 15 -8.5t1 -18.5l-10 -20q-8 -14 -23 -15h-634l-17 -84l-12 -84h573q10 0 14.5 -9t0.5 -17l-11 -21q-6 -14 -20 -14h-563q-18 -213 45 -344q41 -88 117.5 -141.5t173.5 -53.5q113 0 207 81t126 198q8 18 25 18 h21q20 0 16 -20l-53 -318q-4 -20 -25 -20h-6q-8 0 -12 6l-68 90q-123 -96 -262 -96q-258 0 -404 219q-109 166 -104 381h-113q-10 0 -15 8.5t-1 18.5z" />
<glyph unicode="&#x2122;" horiz-adv-x="2181" d="M250 1122l72 277h788l-23 -277h-30q12 158 -19.5 199t-175.5 41q-59 0 -71 -2q-14 -2 -21.5 -8t-9.5 -13.5t-4 -25.5l-109 -647q-6 -37 11.5 -48.5t107.5 -11.5h49l-6 -39q-47 4 -231 4q-182 0 -234 -4l6 39h49q63 0 92 7.5t36.5 17.5t11.5 35l108 647q6 39 -10 45 q-4 2 -8 2q-12 2 -72 2q-143 0 -189 -41t-87 -199h-31zM1067 567l6 39q57 0 91 17.5t41 33t12 39.5l102 615q4 37 -8.5 47t-79.5 10h-31l8 39h209q20 0 27.5 -3t9.5 -20l168 -700l401 700q10 16 17.5 19.5t30.5 3.5h206l-8 -39h-28q-68 0 -85.5 -10t-21.5 -47l-109 -647 q-6 -37 7.5 -47.5t81.5 -10.5h28l-6 -39q-43 4 -174 4t-178 -4l6 39h29q68 0 85 10.5t23 47.5l119 706l-2 2l-449 -782q-18 -23 -28 -23q-14 0 -19 23l-186 772l-111 -666q0 -18 -2 -37.5t27 -36t86 -16.5l-6 -39l-144 4z" />
<glyph unicode="&#xe000;" horiz-adv-x="1055" d="M0 1055h1055v-1055h-1055v1055z" />
<glyph unicode="&#xfb01;" horiz-adv-x="1716" d="M1178 0l8 51q109 0 135.5 15.5t36.5 83.5l127 753q3 23 3 39q0 33 -13 44q-20 15 -129 15l8 52l227 -6l232 6l-8 -52q-109 0 -135.5 -15t-36.5 -83l-127 -753q-3 -23 -4 -40q0 -33 14 -43q20 -15 129 -16l-8 -51l-228 6zM88 0l8 51q100 0 127 16.5t37 79.5l125 752 q3 21 3 37q0 32 -13 43q-20 16 -121 16l8 52h889l-18 -347h-52q3 38 3 71q0 117 -40 164q-51 60 -219 60h-194q-55 0 -70.5 -13t-25.5 -75l-60 -358h137q111 0 148 36t55 142h51l-67 -408h-51q8 45 7 77q0 45 -15 66q-26 36 -136 36h-137l-57 -344q-4 -23 -4 -40 q0 -38 19 -48q28 -14 150 -15l-8 -51l-250 6z" />
<glyph unicode="&#xfb02;" horiz-adv-x="2148" d="M1186 0l8 51q100 0 127 16.5t37 79.5l127 758q3 21 3 37q0 32 -13 43q-20 16 -121 16l8 52l225 -6l254 6l-8 -52q-123 0 -156.5 -14t-46.5 -88l-126 -760q-4 -27 -4 -45q0 -22 6 -29q10 -13 65 -14h129q82 0 145.5 22.5t100.5 51.5t65.5 82t41 89t28.5 101h51l-104 -397 h-842zM88 0l8 51q100 0 127 16.5t37 79.5l125 752q3 21 3 37q0 32 -13 43q-20 16 -121 16l8 52h889l-18 -347h-52q3 38 3 71q0 117 -40 164q-51 60 -219 60h-194q-55 0 -70.5 -13t-25.5 -75l-60 -358h137q111 0 148 36t55 142h51l-67 -408h-51q8 45 7 77q0 45 -15 66 q-26 36 -136 36h-137l-57 -344q-4 -23 -4 -40q0 -38 19 -48q28 -14 150 -15l-8 -51l-250 6z" />
<glyph unicode="&#xfb03;" horiz-adv-x="2813" d="M2275 0l8 51q109 0 135.5 15.5t36.5 83.5l127 753q3 23 3 39q0 33 -13 44q-20 15 -129 15l8 52l227 -6l232 6l-8 -52q-109 0 -135.5 -15t-36.5 -83l-127 -753q-3 -23 -4 -40q0 -33 14 -43q20 -15 129 -16l-8 -51l-228 6zM1186 0l8 51q100 0 127 16.5t37 79.5l125 752 q3 21 3 37q0 32 -13 43q-20 16 -121 16l8 52h889l-18 -347h-52q3 38 3 71q0 117 -40 164q-51 60 -219 60h-194q-55 0 -70.5 -13t-25.5 -75l-60 -358h137q111 0 148 36t55 142h51l-67 -408h-51q8 45 7 77q0 45 -15 66q-26 36 -136 36h-137l-57 -344q-4 -23 -4 -40 q0 -38 19 -48q28 -14 150 -15l-8 -51l-250 6zM88 0l8 51q100 0 127 16.5t37 79.5l125 752q3 21 3 37q0 32 -13 43q-20 16 -121 16l8 52h889l-18 -347h-52q3 38 3 71q0 117 -40 164q-51 60 -219 60h-194q-55 0 -70.5 -13t-25.5 -75l-60 -358h137q111 0 148 36t55 142h51 l-67 -408h-51q8 45 7 77q0 45 -15 66q-26 36 -136 36h-137l-57 -344q-4 -23 -4 -40q0 -38 19 -48q28 -14 150 -15l-8 -51l-250 6z" />
<glyph unicode="&#xfb04;" horiz-adv-x="3246" d="M2283 0l8 51q100 0 127 16.5t37 79.5l127 758q3 21 3 37q0 32 -13 43q-20 16 -121 16l8 52l225 -6l254 6l-8 -52q-123 0 -156.5 -14t-46.5 -88l-126 -760q-4 -27 -4 -45q0 -22 6 -29q10 -13 65 -14h129q82 0 145.5 22.5t100.5 51.5t65.5 82t41 89t28.5 101h51l-104 -397 h-842zM1186 0l8 51q100 0 127 16.5t37 79.5l125 752q3 21 3 37q0 32 -13 43q-20 16 -121 16l8 52h889l-18 -347h-52q3 38 3 71q0 117 -40 164q-51 60 -219 60h-194q-55 0 -70.5 -13t-25.5 -75l-60 -358h137q111 0 148 36t55 142h51l-67 -408h-51q8 45 7 77q0 45 -15 66 q-26 36 -136 36h-137l-57 -344q-4 -23 -4 -40q0 -38 19 -48q28 -14 150 -15l-8 -51l-250 6zM88 0l8 51q100 0 127 16.5t37 79.5l125 752q3 21 3 37q0 32 -13 43q-20 16 -121 16l8 52h889l-18 -347h-52q3 38 3 71q0 117 -40 164q-51 60 -219 60h-194q-55 0 -70.5 -13 t-25.5 -75l-60 -358h137q111 0 148 36t55 142h51l-67 -408h-51q8 45 7 77q0 45 -15 66q-26 36 -136 36h-137l-57 -344q-4 -23 -4 -40q0 -38 19 -48q28 -14 150 -15l-8 -51l-250 6z" />
</font>
</defs>
</svg>
